<?xml version="1.0" standalone="no"?>
<!DOCTYPE svg PUBLIC "-//W3C//DTD SVG 20010904//EN"
 "http://www.w3.org/TR/2001/REC-SVG-20010904/DTD/svg10.dtd">
<svg version="1.0" xmlns="http://www.w3.org/2000/svg"
 width="449.000000pt" height="449.000000pt" viewBox="0 0 449.000000 449.000000"
 preserveAspectRatio="xMidYMid meet">
<metadata>
Created by potrace 1.14, written by Peter Selinger 2001-2017
</metadata>
<g transform="translate(0.000000,449.000000) scale(0.100000,-0.100000)"
fill="#000000" stroke="none">
<path d="M0 2245 l0 -2245 2245 0 2245 0 0 2245 0 2245 -2245 0 -2245 0 0
-2245z m2764 2059 c17 -18 26 -37 26 -58 0 -17 -98 -355 -218 -751 l-219 -720
480 -5 479 -5 25 -29 c19 -22 24 -38 21 -65 -3 -29 -169 -265 -877 -1241 -480
-663 -886 -1217 -902 -1232 -41 -39 -90 -38 -130 1 -16 16 -29 40 -29 53 0 16
350 1190 436 1461 5 16 -21 17 -446 17 l-452 0 -30 30 c-25 25 -29 37 -26 68
3 30 163 263 861 1252 472 668 867 1223 879 1233 31 27 90 22 122 -9z"/>
<path d="M1803 2807 l-622 -882 417 -5 c311 -4 423 -8 439 -18 28 -15 43 -43
43 -75 0 -14 -69 -253 -154 -533 -85 -280 -154 -509 -153 -510 1 -1 295 402
652 895 l651 896 -441 5 c-397 5 -444 7 -467 22 -53 35 -51 45 112 582 83 274
150 499 148 501 -2 2 -283 -393 -625 -878z"/>
</g>
</svg>
